<?xml version="1.0" encoding="UTF-8" standalone="no"?>
<svg
   viewBox="0 0 570 571.34"
   version="1.1"
   id="svg27"
   sodipodi:docname="empty_state_computers_v2.svg"
   inkscape:version="1.1 (c4e8f9e, 2021-05-24)"
   xmlns:inkscape="http://www.inkscape.org/namespaces/inkscape"
   xmlns:sodipodi="http://sodipodi.sourceforge.net/DTD/sodipodi-0.dtd"
   xmlns="http://www.w3.org/2000/svg"
   xmlns:svg="http://www.w3.org/2000/svg">
  <defs
     id="defs31" />
  <sodipodi:namedview
     id="namedview29"
     pagecolor="#ffffff"
     bordercolor="#111111"
     borderopacity="1"
     inkscape:pageshadow="0"
     inkscape:pageopacity="0"
     inkscape:pagecheckerboard="1"
     showgrid="false"
     inkscape:zoom="0.97315084"
     inkscape:cx="272.82513"
     inkscape:cy="285.67"
     inkscape:current-layer="svg27" />
  <path
     fill="#E8F0FE"
     d="M510.8 152.2H200.2c-6.2 0-11.2 5-11.2 11.2v203.3c0 6.2 5 11.2 11.2 11.2h310.5c6.2 0 11.2-5 11.2-11.2V163.4c.1-6.2-4.9-11.2-11.1-11.2z"
     id="path7"
     style="fill:#282d35;fill-opacity:1" />
  <path
     fill="#D2E3FC"
     d="M207 171h297v189H207z"
     id="path9"
     style="fill:#2f3642;fill-opacity:1" />
  <path
     fill="#E8F0FE"
     d="M342 413.7c0 9.9-8.1 18-18 18h-36v9.2h144v-9.2h-36c-9.9 0-18-7.8-18-17.7v-9l-.1-27H342v35.7z"
     id="path11"
     style="fill:#2f3642;fill-opacity:1" />
  <path
     fill="#E8F0FE"
     d="M303.6 234H56.7c-6.3 0-11.4 5.1-11.4 11.4V441H315V245.4c0-6.3-5.1-11.4-11.4-11.4z"
     id="path13"
     style="fill:#282d35;fill-opacity:1" />
  <path
     fill="#E8F0FE"
     d="M303.5 232.2H189V368c0 6.3 5.1 11.3 11.3 11.3H315V243.7c0-6.4-5.1-11.5-11.5-11.5z"
     id="path15"
     style="fill:#282d35;fill-opacity:1" />
  <path
     fill="#D2E3FC"
     d="M36 422.5h288V441H36z"
     id="path17" />
  <path
     fill="#D2E3FC"
     d="M36 422.5h288V441H36z"
     id="path19"
     style="fill:#2f3642;fill-opacity:1;stroke:none" />
  <path
     fill="#1A73E8"
     d="M297 360h-78.7c-6.2 0-11.3-5.1-11.3-11.3V252h78.7c6.2 0 11.3 5.1 11.3 11.3V360z"
     id="path21"
     style="fill:#8ab4f8;fill-opacity:1" />
  <path
     fill="#D2E3FC"
     d="M200.2 378c-6.2 0-11.2-5-11.2-11.2V252H63v153h234v-27h-96.8z"
     id="path23"
     style="fill:#2f3642;fill-opacity:1" />
  <path
     fill="#FFF"
     d="M252 283.4v-8l-10.7 10.7 10.7 10.7v-8c8.8 0 16 7.2 16 16 0 2.7-.7 5.3-1.9 7.5l3.9 3.9c2.1-3.3 3.3-7.2 3.3-11.4.1-11.8-9.5-21.4-21.3-21.4zm0 37.4c-8.8 0-16-7.2-16-16 0-2.7.7-5.3 1.9-7.5l-3.9-3.9c-2.1 3.3-3.3 7.2-3.3 11.4 0 11.8 9.6 21.4 21.4 21.4v8l10.7-10.7-10.8-10.7v8z"
     id="path25"
     style="fill:#000000;fill-opacity:1" />
</svg>
